<?xml version="1.0" encoding="UTF-8"?>
<!DOCTYPE svg PUBLIC "-//W3C//DTD SVG 1.1//EN" "http://www.w3.org/Graphics/SVG/1.1/DTD/svg11.dtd">
<svg xmlns="http://www.w3.org/2000/svg" version="1.1" width="512px" height="512px" style="shape-rendering:geometricPrecision; text-rendering:geometricPrecision; image-rendering:optimizeQuality; fill-rule:evenodd; clip-rule:evenodd" xmlns:xlink="http://www.w3.org/1999/xlink">
<g><path style="opacity:0.996" fill="#000054" d="M 232.5,-0.5 C 247.833,-0.5 263.167,-0.5 278.5,-0.5C 380.566,12.7752 452.399,66.4419 494,160.5C 502.969,183.873 508.802,207.873 511.5,232.5C 511.5,247.833 511.5,263.167 511.5,278.5C 498.225,380.566 444.558,452.399 350.5,494C 327.127,502.969 303.127,508.802 278.5,511.5C 263.167,511.5 247.833,511.5 232.5,511.5C 130.434,498.225 58.6008,444.558 17,350.5C 8.0309,327.127 2.19757,303.127 -0.5,278.5C -0.5,263.167 -0.5,247.833 -0.5,232.5C 12.7752,130.434 66.4419,58.6008 160.5,17C 183.873,8.0309 207.873,2.19757 232.5,-0.5 Z"/></g>
<g><path style="opacity:1" fill="#a9fe55" d="M 104.5,129.5 C 121.503,129.333 138.503,129.5 155.5,130C 185.062,158.399 214.729,186.565 244.5,214.5C 244.831,236.34 244.497,258.006 243.5,279.5C 215.839,252.673 188.005,226.006 160,199.5C 159.5,260.166 159.333,320.832 159.5,381.5C 141.167,381.5 122.833,381.5 104.5,381.5C 104.5,297.5 104.5,213.5 104.5,129.5 Z"/></g>
<g><path style="opacity:1" fill="#699e55" d="M 352.5,129.5 C 352.833,189.837 352.5,250.17 351.5,310.5C 350.893,310.376 350.56,310.043 350.5,309.5C 351.167,249.5 351.833,189.5 352.5,129.5 Z"/></g>
<g><path style="opacity:1" fill="#a9fe55" d="M 352.5,129.5 C 370.5,129.5 388.5,129.5 406.5,129.5C 406.5,213.5 406.5,297.5 406.5,381.5C 389.167,381.5 371.833,381.5 354.5,381.5C 324.807,352.806 295.14,324.139 265.5,295.5C 265.169,274.327 265.503,253.327 266.5,232.5C 294.5,258.167 322.5,283.833 350.5,309.5C 350.56,310.043 350.893,310.376 351.5,310.5C 352.5,250.17 352.833,189.837 352.5,129.5 Z"/></g>
<g><path style="opacity:1" fill="#91d955" d="M 406.5,129.5 C 407.499,213.665 407.833,297.998 407.5,382.5C 389.659,382.83 371.992,382.497 354.5,381.5C 371.833,381.5 389.167,381.5 406.5,381.5C 406.5,297.5 406.5,213.5 406.5,129.5 Z"/></g>
<g><path style="opacity:1" fill="#558055" d="M 244.5,214.5 C 245.828,236.337 245.828,258.337 244.5,280.5C 243.893,280.376 243.56,280.043 243.5,279.5C 244.497,258.006 244.831,236.34 244.5,214.5 Z"/></g>
<g><path style="opacity:1" fill="#7fbd55" d="M 266.5,232.5 C 265.503,253.327 265.169,274.327 265.5,295.5C 264.172,274.33 264.172,252.996 265.5,231.5C 266.107,231.624 266.44,231.957 266.5,232.5 Z"/></g>
<g><path style="opacity:1" fill="#649257" d="M 104.5,129.5 C 104.5,213.5 104.5,297.5 104.5,381.5C 122.833,381.5 141.167,381.5 159.5,381.5C 141.007,382.497 122.341,382.83 103.5,382.5C 103.167,297.998 103.501,213.665 104.5,129.5 Z"/></g>
</svg>
